<?xml version="1.0" encoding="UTF-8" standalone="no"?>
<svg
   fill="none"
   viewBox="0 0 48 48"
   version="1.1"
   id="svg2"
   xmlns="http://www.w3.org/2000/svg"
   xmlns:svg="http://www.w3.org/2000/svg">
  <defs
     id="defs2" />
  <path
     style="baseline-shift:baseline;display:inline;overflow:visible;vector-effect:none;fill:#333333;stroke-linecap:round;stroke-linejoin:round;enable-background:accumulate;stop-color:#000000;stop-opacity:1;opacity:1"
     d="m 18,3 a 2,2 0 0 0 -2,2 2,2 0 0 0 2,2 H 30 A 2,2 0 0 0 32,5 2,2 0 0 0 30,3 Z M 8,9 a 2,2 0 0 0 -2,2 2,2 0 0 0 2,2 h 32 a 2,2 0 0 0 2,-2 2,2 0 0 0 -2,-2 z"
     id="path1" />
  <path
     style="baseline-shift:baseline;display:inline;overflow:visible;vector-effect:none;fill:#333333;stroke-linejoin:round;enable-background:accumulate;stop-color:#000000;stop-opacity:1;opacity:1"
     d="m 12,15 a 2.0002,2.0002 0 0 0 -2,2 v 23 c 0,2.737734 2.262266,5 5,5 h 18 c 2.737734,0 5,-2.262266 5,-5 V 17 a 2.0002,2.0002 0 0 0 -2,-2 z m 2,4 h 20 v 21 c 0,0.575974 -0.424026,1 -1,1 H 15 c -0.575974,0 -1,-0.424026 -1,-1 z"
     id="path2" />
</svg>
