<?xml version="1.0" encoding="UTF-8" standalone="no"?>
<svg
   viewBox="0 0 48 48"
   fill="none"
   version="1.1"
   id="svg3"
   xmlns="http://www.w3.org/2000/svg"
   xmlns:svg="http://www.w3.org/2000/svg">
  <defs
     id="defs3" />
  <path
     style="baseline-shift:baseline;display:inline;overflow:visible;vector-effect:none;fill:#333333;stroke-linecap:round;stroke-linejoin:round;enable-background:accumulate;stop-color:#000000;stop-opacity:1;opacity:1"
     d="m 5.8183594,4.7265625 a 2,2 0 0 0 -2,2 V 14 a 2.0002,2.0002 0 0 0 2,2 h 7.2734376 a 2,2 0 0 0 2,-2 2,2 0 0 0 -2,-2 H 7.8183594 V 6.7265625 a 2,2 0 0 0 -2,-2 z"
     id="path1" />
  <path
     style="baseline-shift:baseline;display:inline;overflow:visible;vector-effect:none;fill:#333333;stroke-linecap:round;stroke-linejoin:round;enable-background:accumulate;stop-color:#000000;stop-opacity:1;opacity:1"
     d="M 24,2 C 15.873671,2 8.7498448,6.4207666 4.9453125,12.996094 A 2,2 0 0 0 5.6757812,15.728516 2,2 0 0 0 8.4082031,15 C 11.520331,9.6213472 17.322329,6 24,6 33.964821,6 42,14.035179 42,24 42,33.964821 33.964821,42 24,42 14.035179,42 6,33.964821 6,24 A 2,2 0 0 0 4,22 2,2 0 0 0 2,24 C 2,36.126579 11.873421,46 24,46 36.126579,46 46,36.126579 46,24 46,11.873421 36.126579,2 24,2 Z"
     id="path2" />
  <path
     style="baseline-shift:baseline;display:inline;overflow:visible;vector-effect:none;fill:#333333;stroke-linecap:round;stroke-linejoin:round;enable-background:accumulate;stop-color:#000000;stop-opacity:1;opacity:1"
     d="m 24.005859,10 a 2,2 0 0 0 -2,2 l -0.002,12.007812 a 2.0002,2.0002 0 0 0 0.585938,1.416016 l 8.478515,8.478516 a 2,2 0 0 0 2.828125,0 2,2 0 0 0 0,-2.828125 L 26.003906,23.179687 26.005859,12 a 2,2 0 0 0 -2,-2 z"
     id="path3" />
</svg>
